<svg width="61" height="34" viewBox="0 0 61 34" fill="none" xmlns="http://www.w3.org/2000/svg">
<path d="M35.5312 13.4258C34.4346 14.5864 33.2923 15.8327 32.0996 17.1689C31.1814 18.2009 30.2802 19.1922 29.3965 20.1416L28.3008 16.9443C28.0372 16.1927 27.7743 15.326 27.7383 14.4248H27.5498C27.4743 15.325 27.2116 16.1927 26.9863 16.9443L24.0215 25.5254C20.6867 28.5765 17.5531 30.8078 14.4873 31.9912H10.9863L6.25586 18.125C7.72067 16.2867 9.58894 14.398 11.8203 12.4824C12.3054 12.0627 12.7869 11.6592 13.2646 11.2725L15.8438 20.2891C16.1073 21.2669 16.3701 22.2079 16.3701 23.1475H16.5625C16.638 22.2079 17.0127 21.1915 17.3506 20.2891L22.334 5.88867C23.0395 5.66513 23.7654 5.4636 24.4463 5.28125H32.7119L35.5312 13.4258ZM44.2734 31.9912H33.459L30.2734 22.6982C31.6427 21.3381 33.0411 19.8482 34.4639 18.2217C35.1311 17.4545 35.7824 16.7091 36.418 15.9854L37.9082 20.2891C38.2461 21.1892 38.623 22.2079 38.6963 23.1475H38.8848C38.8848 22.2079 39.1485 21.2669 39.4121 20.2891L42.5723 9.25586C44.0595 7.73316 45.4656 6.40286 46.8125 5.28125H53.3867L44.2734 31.9912ZM12.7158 9.35449C12.0295 9.86065 11.3434 10.4048 10.6641 10.9912C8.55769 12.8318 6.91434 14.6226 5.64258 16.3271L1.875 5.28125H11.5518L12.7158 9.35449ZM44.2676 5.28125C44.0307 5.46298 43.7908 5.64887 43.5498 5.8418L43.7109 5.28125H44.2676Z" fill="white"/>
<path d="M26.4613 4.18621C22.7664 4.27512 16.5482 6.39306 10.1069 11.9512C4.95658 16.3796 1.74045 20.6537 0.95866 24.507C0.112664 28.7496 2.14035 31.5585 5.7057 32.2281C13.4233 33.6911 20.9381 27.2619 30.386 16.6451C41.2927 4.42479 47.9368 -0.32088 54.823 0.0167304C56.5443 0.101133 59.1262 0.72121 59.9643 2.73224C60.1389 3.18239 60.1322 4.31788 59.4011 4.28074C59.0541 4.31338 58.9325 3.76645 58.6644 3.21052C57.7361 1.04644 56.0284 0.668318 54.5527 0.595169C48.3074 0.287944 42.1612 6.88034 32.7562 17.7007C22.3046 29.6454 13.2926 34.3235 5.72034 32.9168C1.66497 32.0773 -0.602659 29.1581 0.1397 24.1221C0.711958 20.5052 2.97057 15.6908 8.94774 10.4658C15.7777 4.56996 23.3319 2.96632 27.1857 4.18396" fill="white"/>
</svg>
